<svg width="33" height="32" viewBox="0 0 33 32" fill="none" xmlns="http://www.w3.org/2000/svg">
<path d="M14.3474 15.9625C14.3474 14.7609 15.3209 13.7865 16.5222 13.7865C17.7234 13.7865 18.6974 14.7609 18.6974 15.9625C18.6974 17.164 17.7234 18.1384 16.5222 18.1384C15.3209 18.1384 14.3474 17.164 14.3474 15.9625ZM13.1715 15.9625C13.1715 17.8136 14.6716 19.3141 16.5222 19.3141C18.3727 19.3141 19.8728 17.8136 19.8728 15.9625C19.8728 14.1113 18.3727 12.6108 16.5222 12.6108C14.6716 12.6108 13.1715 14.1113 13.1715 15.9625ZM19.2224 12.4779C19.2224 12.6328 19.2682 12.7843 19.3542 12.9131C19.4402 13.0419 19.5625 13.1424 19.7055 13.2017C19.8486 13.2611 20.006 13.2766 20.1579 13.2465C20.3098 13.2163 20.4494 13.1418 20.5589 13.0323C20.6685 12.9228 20.7431 12.7832 20.7734 12.6313C20.8037 12.4794 20.7882 12.3219 20.729 12.1787C20.6698 12.0356 20.5695 11.9132 20.4408 11.8271C20.312 11.741 20.1607 11.695 20.0058 11.6949H20.0055C19.7979 11.695 19.5988 11.7775 19.452 11.9243C19.3052 12.0711 19.2226 12.2702 19.2224 12.4779ZM13.886 21.2755C13.2498 21.2465 12.904 21.1405 12.6742 21.051C12.3695 20.9323 12.1522 20.791 11.9236 20.5627C11.6951 20.3344 11.5536 20.1172 11.4355 19.8124C11.346 19.5827 11.24 19.2367 11.2111 18.6003C11.1794 17.9123 11.1731 17.7056 11.1731 15.9625C11.1731 14.2194 11.1799 14.0133 11.2111 13.3247C11.24 12.6883 11.3468 12.343 11.4355 12.1126C11.5541 11.8078 11.6954 11.5904 11.9236 11.3618C12.1518 11.1332 12.369 10.9916 12.6742 10.8735C12.9039 10.7839 13.2498 10.6779 13.886 10.649C14.5738 10.6173 14.7804 10.611 16.5222 10.611C18.264 10.611 18.4708 10.6179 19.1592 10.649C19.7954 10.678 20.1406 10.7848 20.3709 10.8735C20.6756 10.9916 20.893 11.1335 21.1215 11.3618C21.35 11.5901 21.491 11.8078 21.6096 12.1126C21.6992 12.3423 21.8051 12.6883 21.8341 13.3247C21.8657 14.0133 21.872 14.2194 21.872 15.9625C21.872 17.7056 21.8657 17.9117 21.8341 18.6003C21.8051 19.2367 21.6986 19.5826 21.6096 19.8124C21.491 20.1172 21.3497 20.3346 21.1215 20.5627C20.8933 20.7908 20.6756 20.9323 20.3709 21.051C20.1413 21.1406 19.7954 21.2466 19.1592 21.2755C18.4714 21.3071 18.2647 21.3135 16.5222 21.3135C14.7796 21.3135 14.5736 21.3071 13.886 21.2755ZM13.8319 9.47471C13.1373 9.50635 12.6626 9.61653 12.2481 9.77789C11.8187 9.94452 11.4553 10.1681 11.0921 10.5308C10.729 10.8935 10.5061 11.2576 10.3395 11.687C10.1782 12.102 10.068 12.5765 10.0364 13.2714C10.0042 13.9674 9.99689 14.1899 9.99689 15.9625C9.99689 17.735 10.0042 17.9575 10.0364 18.6535C10.068 19.3484 10.1782 19.8229 10.3395 20.2379C10.5061 20.667 10.729 21.0316 11.0921 21.3941C11.4553 21.7567 11.8187 21.9799 12.2481 22.147C12.6634 22.3084 13.1373 22.4185 13.8319 22.4502C14.528 22.4818 14.7501 22.4897 16.5222 22.4897C18.2942 22.4897 18.5167 22.4824 19.2124 22.4502C19.9071 22.4185 20.3815 22.3084 20.7963 22.147C21.2253 21.9799 21.589 21.7568 21.9522 21.3941C22.3154 21.0314 22.5378 20.667 22.7049 20.2379C22.8662 19.8229 22.9768 19.3484 23.0079 18.6535C23.0396 17.957 23.0469 17.735 23.0469 15.9625C23.0469 14.1899 23.0396 13.9674 23.0079 13.2714C22.9763 12.5765 22.8662 12.1017 22.7049 11.687C22.5378 11.2579 22.3148 10.8941 21.9522 10.5308C21.5896 10.1675 21.2253 9.94452 20.7968 9.77789C20.3815 9.61653 19.9071 9.50583 19.2129 9.47471C18.5172 9.44307 18.2948 9.43518 16.5227 9.43518C14.7506 9.43518 14.528 9.44254 13.8319 9.47471Z" fill="#051532"/>
</svg>
