<svg width="32" height="32" viewBox="0 0 32 32" fill="none" xmlns="http://www.w3.org/2000/svg">
<path d="M21.8222 9.12317H9.98318C9.4407 9.12317 8.99994 9.5701 8.99994 10.1187V21.9362C8.99994 22.4848 9.4407 22.9318 9.98318 22.9318H21.8222C22.3647 22.9318 22.8085 22.4848 22.8085 21.9362V10.1187C22.8085 9.5701 22.3647 9.12317 21.8222 9.12317ZM13.1733 20.9591H11.1267V14.3692H13.1764V20.9591H13.1733ZM12.15 13.4692C11.4935 13.4692 10.9633 12.9359 10.9633 12.2825C10.9633 11.6291 11.4935 11.0958 12.15 11.0958C12.8035 11.0958 13.3367 11.6291 13.3367 12.2825C13.3367 12.939 12.8065 13.4692 12.15 13.4692ZM20.8451 20.9591H18.7985V17.7535C18.7985 16.9891 18.7831 16.0059 17.7351 16.0059C16.6686 16.0059 16.5053 16.8381 16.5053 17.6981V20.9591H14.4586V14.3692H16.4221V15.2692H16.4498C16.7241 14.7514 17.393 14.2058 18.3885 14.2058C20.4598 14.2058 20.8451 15.5713 20.8451 17.3467V20.9591Z" fill="#051532"/>
</svg>
